<?xml version="1.0" standalone="no" ?>
<!DOCTYPE svg PUBLIC "-//W3C//DTD SVG 1.1//EN" "http://www.w3.org/Graphics/SVG/1.1/DTD/svg11.dtd">
<svg width="1000px" height="1000px" xmlns="http://www.w3.org/2000/svg" version="1.1" >
	<rect x="83.3333" y="83.3334" width="833.333" height="833.333" fill="none" stroke-width="0.5" stroke="rgb(192,192,192)" />
	<path d="M83.3333,500.003  C361.111,743.629 638.889,560.295 916.667,83.3334 " fill="none" stroke-width="2" stroke="rgb(0,255,255)" />
	<path d="M83.3333,596.51  C361.111,840.136 638.889,656.802 916.667,179.84 " fill="none" stroke-width="2" stroke="rgb(0,255,255)" />
	<path d="M83.3333,431.834  C361.111,614.554 638.889,477.053 916.667,119.333 " fill="none" stroke-width="2" stroke="rgb(0,255,255)" />
	<path d="M83.3333,447.918  C361.111,630.638 638.889,493.137 916.667,135.418 " fill="none" stroke-width="2" stroke="rgb(0,255,255)" />
	<path d="M83.3333,602.925  Q500,935.031 916.667,186.255 " fill="none" stroke-width="4" stroke="rgb(0,128,64)" />
	<path d="M83.3333,428.754  Q500,686.834 916.667,80.254 " fill="none" stroke-width="4" stroke="rgb(0,128,64)" />
	<circle cx="83.3333" cy="500.003" r="2.5" fill="none" stroke-width="1" stroke="rgb(192,192,192)" />
	<circle cx="361.111" cy="743.629" r="2.5" fill="none" stroke-width="1" stroke="rgb(192,192,192)" />
	<circle cx="638.889" cy="560.295" r="2.5" fill="none" stroke-width="1" stroke="rgb(192,192,192)" />
	<circle cx="916.667" cy="83.3334" r="2.5" fill="none" stroke-width="1" stroke="rgb(192,192,192)" />
	<circle cx="83.3333" cy="596.51" r="2.5" fill="none" stroke-width="1" stroke="rgb(192,192,192)" />
	<circle cx="361.111" cy="840.136" r="2.5" fill="none" stroke-width="1" stroke="rgb(192,192,192)" />
	<circle cx="638.889" cy="656.802" r="2.5" fill="none" stroke-width="1" stroke="rgb(192,192,192)" />
	<circle cx="916.667" cy="179.84" r="2.5" fill="none" stroke-width="1" stroke="rgb(192,192,192)" />
	<circle cx="83.3333" cy="431.834" r="2.5" fill="none" stroke-width="1" stroke="rgb(192,192,192)" />
	<circle cx="361.111" cy="614.554" r="2.5" fill="none" stroke-width="1" stroke="rgb(192,192,192)" />
	<circle cx="638.889" cy="477.053" r="2.5" fill="none" stroke-width="1" stroke="rgb(192,192,192)" />
	<circle cx="916.667" cy="119.333" r="2.5" fill="none" stroke-width="1" stroke="rgb(192,192,192)" />
	<circle cx="83.3333" cy="447.918" r="2.5" fill="none" stroke-width="1" stroke="rgb(192,192,192)" />
	<circle cx="361.111" cy="630.638" r="2.5" fill="none" stroke-width="1" stroke="rgb(192,192,192)" />
	<circle cx="638.889" cy="493.137" r="2.5" fill="none" stroke-width="1" stroke="rgb(192,192,192)" />
	<circle cx="916.667" cy="135.418" r="2.5" fill="none" stroke-width="1" stroke="rgb(192,192,192)" />
	<polyline points="83.3333,500.003 361.111,743.629 638.889,560.295 916.667,83.3334 83.3333,500.003 " fill="none" stroke-width="1" stroke="rgb(192,192,192)" />
	<polyline points="83.3333,596.51 361.111,840.136 638.889,656.802 916.667,179.84 83.3333,596.51 " fill="none" stroke-width="1" stroke="rgb(192,192,192)" />
	<polyline points="83.3333,431.834 361.111,614.554 638.889,477.053 916.667,119.333 83.3333,431.834 " fill="none" stroke-width="1" stroke="rgb(192,192,192)" />
	<polyline points="83.3333,447.918 361.111,630.638 638.889,493.137 916.667,135.418 83.3333,447.918 " fill="none" stroke-width="1" stroke="rgb(192,192,192)" />
	<polyline points="83.3333,500.003 83.3333,596.51 83.3333,431.834 83.3333,447.918 83.3333,500.003 " fill="none" stroke-width="1" stroke="rgb(192,192,192)" />
	<polyline points="361.111,743.629 361.111,840.136 361.111,614.554 361.111,630.638 361.111,743.629 " fill="none" stroke-width="1" stroke="rgb(192,192,192)" />
	<polyline points="638.889,560.295 638.889,656.802 638.889,477.053 638.889,493.137 638.889,560.295 " fill="none" stroke-width="1" stroke="rgb(192,192,192)" />
	<polyline points="916.667,83.3334 916.667,179.84 916.667,119.333 916.667,135.418 916.667,83.3334 " fill="none" stroke-width="1" stroke="rgb(192,192,192)" />
	<line x1="83.3333" y1="500" x2="916.667" y2="500" stroke-width="4" stroke="rgb(0,0,255)" />
	<circle cx="83.3333" cy="500" r="2.5" fill="none" stroke-width="4" stroke="rgb(255,0,0)" />
	<circle cx="263.901" cy="500" r="2.5" fill="none" stroke-width="4" stroke="rgb(255,0,0)" />
	<line x1="83.3333" y1="500" x2="263.901" y2="500" stroke-width="4" stroke="rgb(255,0,0)" />
	<circle cx="400.224" cy="500" r="2.5" fill="none" stroke-width="4" stroke="rgb(255,0,0)" />
	<circle cx="702.266" cy="500" r="2.5" fill="none" stroke-width="4" stroke="rgb(255,0,0)" />
	<line x1="400.224" y1="500" x2="702.266" y2="500" stroke-width="4" stroke="rgb(255,0,0)" />
</svg>
