<?xml version="1.0" standalone="no" ?>
<!DOCTYPE svg PUBLIC "-//W3C//DTD SVG 1.1//EN" "http://www.w3.org/Graphics/SVG/1.1/DTD/svg11.dtd">
<svg width="400px" height="400px" xmlns="http://www.w3.org/2000/svg" version="1.1" >
	<line x1="195.459" y1="379.812" x2="195.459" y2="83.3334" stroke-width="1" stroke="rgb(0,0,0)" />
	<line x1="33.4169" y1="163.874" x2="367.586" y2="163.874" stroke-width="1" stroke="rgb(0,0,0)" />
	<!--rect x="33.4169" y="83.3334" width="334.169" height="833.333" fill="none" stroke-width="0.5" stroke="rgb(192,192,192)" /-->
	<rect x="33.4169" y="83.3334" width="334.169" height="296.4786" fill="none" stroke-width="0.5" stroke="rgb(192,192,192)" />
	<path d="M191.668,178.183  C194.878,166.066 198.091,153.943 200.847,143.541 " fill="none" stroke-width="2" stroke="rgb(0,220,220)" />
	<path d="M217.508,210.6  C220.719,198.483 223.931,186.36 226.687,175.958 " fill="none" stroke-width="2" stroke="rgb(0,255,255)" />
	<path d="M194.848,181.445  C198.059,169.328 201.271,157.205 204.028,146.804 " fill="none" stroke-width="1" stroke="rgb(0,255,255)" />
	<path d="M197.949,184.795  C201.16,172.678 204.372,160.555 207.129,150.154 " fill="none" stroke-width="1" stroke="rgb(0,255,255)" />
	<path d="M200.972,188.231  C204.182,176.114 207.395,163.991 210.151,153.59 " fill="none" stroke-width="2" stroke="rgb(0,220,220)" />
	<path d="M203.917,191.753  C207.127,179.636 210.34,167.513 213.096,157.111 " fill="none" stroke-width="1" stroke="rgb(0,255,255)" />
	<path d="M206.785,195.358  C209.995,183.241 213.208,171.118 215.964,160.717 " fill="none" stroke-width="1" stroke="rgb(0,255,255)" />
	<path d="M209.577,199.047  C212.787,186.93 216,174.807 218.756,164.405 " fill="none" stroke-width="2" stroke="rgb(0,220,220)" />
	<path d="M212.294,202.817  C215.505,190.7 218.717,178.578 221.473,168.176 " fill="none" stroke-width="1" stroke="rgb(0,255,255)" />
	<path d="M214.938,206.669  C218.148,194.552 221.361,182.429 224.117,172.027 " fill="none" stroke-width="1" stroke="rgb(0,255,255)" />
	<path d="M191.668,178.183  C201.33,187.838 209.905,198.688 217.508,210.6 " fill="none" stroke-width="2" stroke="rgb(0,255,255)" />
	<path d="M200.847,143.541  C210.509,153.196 219.085,164.046 226.687,175.958 " fill="none" stroke-width="2" stroke="rgb(0,255,255)" />
	<path d="M192.737,174.146  C202.399,183.801 210.975,194.651 218.578,206.563 " fill="none" stroke-width="1" stroke="rgb(0,255,255)" />
	<path d="M193.803,170.123  C203.465,179.778 212.041,190.628 219.644,202.54 " fill="none" stroke-width="1" stroke="rgb(0,255,255)" />
	<path d="M194.862,166.128  C204.524,175.783 213.1,186.633 220.702,198.545 " fill="none" stroke-width="2" stroke="rgb(0,220,220)" />
	<path d="M195.909,162.175  C205.571,171.83 214.147,182.68 221.75,194.592 " fill="none" stroke-width="1" stroke="rgb(0,255,255)" />
	<path d="M196.942,158.278  C206.604,167.934 215.18,178.784 222.782,190.696 " fill="none" stroke-width="1" stroke="rgb(0,255,255)" />
	<path d="M197.956,154.453  C207.618,164.108 216.193,174.958 223.796,186.87 " fill="none" stroke-width="2" stroke="rgb(0,220,220)" />
	<path d="M198.947,150.712  C208.609,160.367 217.185,171.217 224.787,183.129 " fill="none" stroke-width="1" stroke="rgb(0,255,255)" />
	<path d="M199.912,147.07  C209.574,156.725 218.15,167.575 225.752,179.487 " fill="none" stroke-width="1" stroke="rgb(0,255,255)" />
	<circle cx="191.668" cy="178.183" r="2.5" fill="none" stroke-width="1" stroke="rgb(192,192,192)" />
	<circle cx="194.878" cy="166.066" r="2.5" fill="none" stroke-width="1" stroke="rgb(192,192,192)" />
	<circle cx="198.091" cy="153.943" r="2.5" fill="none" stroke-width="1" stroke="rgb(192,192,192)" />
	<circle cx="200.847" cy="143.541" r="2.5" fill="none" stroke-width="1" stroke="rgb(192,192,192)" />
	<circle cx="201.33"  cy="187.838" r="2.5" fill="none" stroke-width="1" stroke="rgb(192,192,192)" />
	<circle cx="204.54"  cy="175.721" r="2.5" fill="none" stroke-width="1" stroke="rgb(192,192,192)" />
	<circle cx="207.753" cy="163.598" r="2.5" fill="none" stroke-width="1" stroke="rgb(192,192,192)" />
	<circle cx="210.509" cy="153.196" r="2.5" fill="none" stroke-width="1" stroke="rgb(192,192,192)" />
	<circle cx="209.905" cy="198.688" r="2.5" fill="none" stroke-width="1" stroke="rgb(192,192,192)" />
	<circle cx="213.116" cy="186.571" r="2.5" fill="none" stroke-width="1" stroke="rgb(192,192,192)" />
	<circle cx="216.328" cy="174.448" r="2.5" fill="none" stroke-width="1" stroke="rgb(192,192,192)" />
	<circle cx="219.085" cy="164.046" r="2.5" fill="none" stroke-width="1" stroke="rgb(192,192,192)" />
	<circle cx="217.508" cy="210.6"   r="2.5" fill="none" stroke-width="1" stroke="rgb(192,192,192)" />
	<circle cx="220.719" cy="198.483" r="2.5" fill="none" stroke-width="1" stroke="rgb(192,192,192)" />
	<circle cx="223.931" cy="186.36"  r="2.5" fill="none" stroke-width="1" stroke="rgb(192,192,192)" />
	<circle cx="226.687" cy="175.958" r="2.5" fill="none" stroke-width="1" stroke="rgb(192,192,192)" />
	<polyline points="191.668,178.183 194.878,166.066 198.091,153.943 200.847,143.541 " fill="none" stroke-width="1" stroke="rgb(192,192,192)" />
	<polyline points="201.33,187.838 204.54,175.721 207.753,163.598 210.509,153.196 " fill="none" stroke-width="1" stroke="rgb(192,192,192)" />
	<polyline points="209.905,198.688 213.116,186.571 216.328,174.448 219.085,164.046 " fill="none" stroke-width="1" stroke="rgb(192,192,192)" />
	<polyline points="217.508,210.6 220.719,198.483 223.931,186.36 226.687,175.958 " fill="none" stroke-width="1" stroke="rgb(192,192,192)" />
	<polyline points="191.668,178.183 201.33,187.838 209.905,198.688 217.508,210.6 " fill="none" stroke-width="1" stroke="rgb(192,192,192)" />
	<polyline points="194.878,166.066 204.54,175.721 213.116,186.571 220.719,198.483 " fill="none" stroke-width="1" stroke="rgb(192,192,192)" />
	<polyline points="198.091,153.943 207.753,163.598 216.328,174.448 223.931,186.36 " fill="none" stroke-width="1" stroke="rgb(192,192,192)" />
	<polyline points="200.847,143.541 210.509,153.196 219.085,164.046 226.687,175.958 " fill="none" stroke-width="1" stroke="rgb(192,192,192)" />
	<!--line x1="131.26" y1="83.3334" x2="795.517" y2="916.667" stroke-width="2" stroke="rgb(0,0,255)" /-->
	<line x1="131.26" y1="83.3334" x2="367.586" y2="379.812" stroke-width="2" stroke="rgb(0,0,255)" />
</svg>
